<svg width="1422" height="1422" viewBox="0 0 1422 1422" fill="none" xmlns="http://www.w3.org/2000/svg">
<path d="M118.5 740.625C118.5 724.266 131.764 711 148.125 711H444.375C460.736 711 474 724.266 474 740.625V1066.5C474 1164.67 394.418 1244.25 296.25 1244.25C198.082 1244.25 118.5 1164.67 118.5 1066.5V740.625Z" fill="#EFA7B5"/>
<path d="M177.75 622.125H414.75V355.49C414.75 311.444 368.398 282.797 329.003 302.495L210.503 361.745C190.429 371.781 177.75 392.297 177.75 414.74V622.125Z" fill="#EFA7B5"/>
<path d="M651.75 622.125C651.75 442.149 797.647 296.25 977.625 296.25C1157.6 296.25 1303.5 442.149 1303.5 622.125C1303.5 802.103 1157.6 948 977.625 948C797.647 948 651.75 802.103 651.75 622.125Z" fill="#EFA7B5"/>
<path d="M933.187 1049.34C947.787 1050.89 962.611 1051.69 977.625 1051.69C992.639 1051.69 1007.46 1050.89 1022.06 1049.34V1155.37H1155.37C1179.92 1155.37 1199.81 1175.27 1199.81 1199.81C1199.81 1224.35 1179.92 1244.25 1155.37 1244.25H799.875C775.334 1244.25 755.438 1224.35 755.438 1199.81C755.438 1175.27 775.334 1155.37 799.875 1155.37H933.187V1049.34Z" fill="#EFA7B5"/>
</svg>
