<svg width="1751" height="1751" viewBox="0 0 1751 1751" fill="none" xmlns="http://www.w3.org/2000/svg">
<path d="M875.503 0C843.934 0 818.339 25.5947 818.339 57.164V180.979C837.279 179.693 856.338 179.006 875.503 179.006C894.669 179.006 913.724 179.693 932.667 180.979V57.164C932.667 25.5947 907.073 0 875.503 0Z" fill="#EFA7B5"/>
<path d="M1218.4 580.241C1113.48 612.635 995.939 630.155 875.493 630.155C872.022 630.155 868.561 630.1 865.097 630.076C859.095 718.741 855.196 815.911 853.76 917.623C860.904 917.688 868.082 917.733 875.302 917.733C1031.55 917.729 1183.43 901.591 1307.89 872.101C1293.66 767.424 1262.95 668.52 1218.4 580.241Z" fill="#EFA7B5"/>
<path d="M914.857 261.012C896.625 328.945 881.605 430.849 870.945 553.901C872.463 553.904 873.975 553.935 875.49 553.935C982.479 553.935 1086.59 539.356 1180.04 512.301C1112.25 404.42 1021.87 317.023 914.857 261.012Z" fill="#EFA7B5"/>
<path d="M570.959 512.301C640.743 532.506 716.474 545.731 794.92 551.134C805.104 433.082 819.229 332.861 836.356 260.892C729.251 316.907 638.797 404.344 570.959 512.301Z" fill="#EFA7B5"/>
<path d="M1603.78 823.582C1550.19 872.836 1465.34 906.867 1390.36 929.107C1392.19 954.497 1393.14 980.122 1393.14 1005.94C1393.14 1108.97 1378.26 1209.14 1350.51 1302.85C1445 1272.47 1531.04 1232.93 1604.5 1185.33C1618.65 1127.83 1626.22 1067.75 1626.22 1005.94C1626.22 943.064 1618.41 881.987 1603.78 823.582Z" fill="#EFA7B5"/>
<path d="M357.867 1005.94C357.867 980.157 358.822 954.576 360.638 929.224C286.548 907.292 201.201 873.305 147.17 823.822C132.577 882.152 124.783 943.15 124.783 1005.94C124.783 1067.75 132.348 1127.83 146.506 1185.35C219.904 1232.9 305.868 1272.41 400.261 1302.78C372.313 1208.27 357.867 1108.15 357.867 1005.94Z" fill="#EFA7B5"/>
<path d="M331.312 489.326C263.891 560.31 210.209 644.436 174.478 737.403C193.896 777.663 262.9 819.057 369.02 852.019C384.495 746.035 415.726 645.524 460.366 554.78C413.616 536.103 370.261 514.189 331.312 489.326Z" fill="#EFA7B5"/>
<path d="M1319.66 1391.5C1266.24 1524.29 1185.63 1640.12 1084.34 1727.07C1303.44 1663.52 1481.54 1502.61 1568.52 1294.47C1493.48 1333.88 1409.56 1366.49 1319.66 1391.5Z" fill="#EFA7B5"/>
<path d="M388.524 435.096C421.649 454.815 458.061 472.312 497.048 487.417C543.576 409.898 600.624 341.315 666.43 284.879C562.861 314.958 468.464 366.797 388.524 435.096Z" fill="#EFA7B5"/>
<path d="M1084.57 284.879C1150.38 341.315 1207.42 409.895 1253.96 487.414C1292.94 472.308 1329.35 454.808 1362.48 435.089C1282.54 366.793 1188.14 314.958 1084.57 284.879Z" fill="#EFA7B5"/>
<path d="M1419.68 489.322C1380.74 514.185 1337.39 536.1 1290.63 554.776C1335.27 645.513 1366.49 746.015 1381.98 851.988C1481.58 820.942 1550.56 781.589 1573.74 741.87C1574.61 740.379 1575.6 739 1576.63 737.67C1540.89 644.597 1487.17 560.375 1419.68 489.322Z" fill="#EFA7B5"/>
<path d="M484.169 1502.05C464.172 1466.55 446.481 1429.59 431.115 1391.44C341.301 1366.44 257.459 1333.86 182.487 1294.48C269.452 1502.58 447.51 1663.46 666.56 1727.04C595.583 1666.11 533.84 1590.22 484.169 1502.05Z" fill="#EFA7B5"/>
<path d="M532.605 580.245C488.043 668.537 457.329 767.455 443.102 872.152C536.274 894.258 649.638 910.188 777.574 915.65C779.051 814.01 783.005 716.556 789.082 627.108C699.148 620.829 612.238 604.834 532.605 580.245Z" fill="#EFA7B5"/>
<path d="M776.914 1005.94C776.914 1001.24 776.921 996.552 776.934 991.87C654.186 986.702 537.088 971.921 435.736 948.772C434.655 967.694 434.084 986.754 434.084 1005.94C434.084 1119.27 453.099 1228.34 488.166 1327.79C582.861 1351.43 684.07 1366.42 788.189 1371.82C780.898 1259.65 776.914 1135.29 776.914 1005.94Z" fill="#EFA7B5"/>
<path d="M793.842 1448.44C701.111 1444.12 610.329 1432.47 523.795 1414.12C593.948 1561.46 701.997 1680.81 836.349 1751C818.606 1676.5 804.092 1571.86 793.842 1448.44Z" fill="#EFA7B5"/>
<path d="M1315.26 948.659C1187.06 977.961 1033.03 993.949 875.305 993.949C867.908 993.949 860.528 993.905 853.151 993.83C853.144 997.862 853.137 1001.89 853.137 1005.94C853.137 1135.49 857.313 1261.22 864.833 1374.05C868.39 1374.07 871.936 1374.13 875.497 1374.13C1010.07 1374.13 1141.54 1358.03 1262.42 1327.9C1297.73 1228.19 1316.92 1119.01 1316.92 1005.94C1316.92 986.719 1316.35 967.616 1315.26 948.659Z" fill="#EFA7B5"/>
<path d="M875.493 1450.35C873.858 1450.35 872.227 1450.32 870.592 1450.31C881.348 1576.95 896.577 1682.28 914.897 1750.96C915.27 1750.75 915.612 1750.51 915.999 1750.31C1049.26 1680.15 1156.72 1560.91 1226.71 1414.23C1115.06 1437.86 996.336 1450.35 875.493 1450.35Z" fill="#EFA7B5"/>
<path d="M218.902 167.429H201.512V156.896C201.512 125.326 175.917 99.7317 144.348 99.7317C112.779 99.7317 87.1842 125.326 87.1842 156.896V167.429H69.7939C38.2246 167.429 12.6299 193.024 12.6299 224.593C12.6299 256.162 38.2246 281.757 69.7939 281.757H87.1842V292.29C87.1842 323.86 112.779 349.454 144.348 349.454C175.917 349.454 201.512 323.86 201.512 292.29V281.757H218.902C250.472 281.757 276.066 256.162 276.066 224.593C276.066 193.024 250.475 167.429 218.902 167.429Z" fill="#EFA7B5"/>
<path d="M1681.21 167.429H1663.82V156.896C1663.82 125.326 1638.22 99.7317 1606.65 99.7317C1575.08 99.7317 1549.49 125.326 1549.49 156.896V167.429H1532.1C1500.53 167.429 1474.93 193.024 1474.93 224.593C1474.93 256.162 1500.53 281.757 1532.1 281.757H1549.49V292.29C1549.49 323.86 1575.08 349.454 1606.65 349.454C1638.22 349.454 1663.82 323.86 1663.82 292.29V281.757H1681.21C1712.78 281.757 1738.37 256.162 1738.37 224.593C1738.37 193.024 1712.78 167.429 1681.21 167.429Z" fill="#EFA7B5"/>
</svg>
