<svg width="1699" height="1828" viewBox="0 0 1699 1828" fill="none" xmlns="http://www.w3.org/2000/svg">
<g clip-path="url(#clip0_121_158)">
<mask id="mask0_121_158" style="mask-type:luminance" maskUnits="userSpaceOnUse" x="-1558" y="170" width="2974" height="1506">
<path d="M-1557.42 170.613H1415.83V1675.67H-1557.42V170.613Z" fill="white"/>
</mask>
<g mask="url(#mask0_121_158)">
<path d="M1171.11 611.466C1169.48 725.945 1134.08 880.944 968.147 941.039C1020.11 808.052 1028.04 680.778 991.225 561.805C942.025 402.084 777.859 277.323 668.627 209.382C631.32 186.075 583.465 215.019 584.173 261.404C585.589 346.101 561.661 469.872 445.492 594.862C290.741 761.21 212.375 933.118 212.375 1105.71C212.375 1322.41 353.958 1599.5 637.125 1599.5C351.056 1291.71 566.333 1029.54 566.333 1029.54C626.223 1479.99 919.442 1599.5 1061.87 1599.5C1183 1599.5 1415.83 1504.29 1415.83 1108.38C1415.83 869.747 1321.54 688.623 1247 582.904C1222.43 548.019 1171.67 567.823 1171.11 611.466Z" fill="#EFA7B5"/>
</g>
</g>
<defs>
<clipPath id="clip0_121_158">
<rect width="1699" height="1828" fill="white"/>
</clipPath>
</defs>
</svg>
