<svg width="2261" height="2261" viewBox="0 0 2261 2261" fill="none" xmlns="http://www.w3.org/2000/svg">
<path fill-rule="evenodd" clip-rule="evenodd" d="M1130.5 1695.75C1442.68 1695.75 1695.75 1442.68 1695.75 1130.5C1695.75 818.321 1442.68 565.25 1130.5 565.25C818.321 565.25 565.25 818.321 565.25 1130.5C565.25 1442.68 818.321 1695.75 1130.5 1695.75ZM1130.5 1507.33C1338.62 1507.33 1507.33 1338.62 1507.33 1130.5C1507.33 922.381 1338.62 753.667 1130.5 753.667C922.381 753.667 753.667 922.381 753.667 1130.5C753.667 1338.62 922.381 1507.33 1130.5 1507.33Z" fill="#EFA7B5"/>
<path d="M1695.75 471.042C1643.72 471.042 1601.54 513.221 1601.54 565.25C1601.54 617.279 1643.72 659.458 1695.75 659.458C1747.78 659.458 1789.96 617.279 1789.96 565.25C1789.96 513.221 1747.78 471.042 1695.75 471.042Z" fill="#EFA7B5"/>
<path fill-rule="evenodd" clip-rule="evenodd" d="M155.817 402.841C94.2085 523.754 94.2085 682.039 94.2085 998.608V1262.39C94.2085 1578.96 94.2085 1737.25 155.817 1858.16C210.009 1964.52 296.481 2050.99 402.841 2105.18C523.754 2166.79 682.039 2166.79 998.608 2166.79H1262.39C1578.96 2166.79 1737.25 2166.79 1858.16 2105.18C1964.52 2050.99 2050.99 1964.52 2105.18 1858.16C2166.79 1737.25 2166.79 1578.96 2166.79 1262.39V998.608C2166.79 682.039 2166.79 523.754 2105.18 402.841C2050.99 296.481 1964.52 210.009 1858.16 155.817C1737.25 94.2084 1578.96 94.2084 1262.39 94.2084H998.608C682.039 94.2084 523.754 94.2084 402.841 155.817C296.481 210.009 210.009 296.481 155.817 402.841ZM1262.39 282.625H998.608C837.215 282.625 727.5 282.772 642.697 289.7C560.091 296.449 517.848 308.682 488.38 323.697C417.474 359.826 359.826 417.474 323.697 488.38C308.682 517.848 296.449 560.091 289.7 642.697C282.772 727.5 282.625 837.214 282.625 998.608V1262.39C282.625 1423.79 282.772 1533.49 289.7 1618.3C296.449 1700.91 308.682 1743.16 323.697 1772.62C359.826 1843.53 417.474 1901.17 488.38 1937.3C517.848 1952.32 560.091 1964.55 642.697 1971.3C727.5 1978.22 837.215 1978.37 998.608 1978.37H1262.39C1423.79 1978.37 1533.5 1978.22 1618.3 1971.3C1700.91 1964.55 1743.16 1952.32 1772.62 1937.3C1843.53 1901.17 1901.17 1843.53 1937.3 1772.62C1952.32 1743.16 1964.55 1700.91 1971.3 1618.3C1978.22 1533.49 1978.38 1423.79 1978.38 1262.39V998.608C1978.38 837.214 1978.22 727.5 1971.3 642.697C1964.55 560.091 1952.32 517.848 1937.3 488.38C1901.17 417.474 1843.53 359.826 1772.62 323.697C1743.16 308.682 1700.91 296.449 1618.3 289.7C1533.5 282.772 1423.79 282.625 1262.39 282.625Z" fill="#EFA7B5"/>
</svg>
