<svg width="2107" height="2107" viewBox="0 0 2107 2107" fill="none" xmlns="http://www.w3.org/2000/svg">
<g clip-path="url(#clip0_132_15)">
<path d="M-0.000118737 1843.63V526.75C-0.000118737 490.229 12.6419 459.326 37.9259 434.042C63.2099 408.758 94.8149 396.116 132.741 396.116H396.116C431.233 396.116 462.135 383.474 488.824 358.19C515.513 332.906 528.155 301.301 526.75 263.375C525.345 225.449 537.987 194.547 564.676 170.667C591.365 146.788 622.97 134.146 659.491 132.741H1449.62C1484.73 132.741 1515.64 145.383 1542.32 170.667C1569.01 195.951 1581.65 226.854 1580.25 263.375C1578.85 299.897 1591.49 331.502 1618.18 358.19C1644.86 384.879 1676.47 397.521 1712.99 396.116H1976.37C2011.48 396.116 2042.39 408.758 2069.07 434.042C2095.76 459.326 2108.4 490.229 2107 526.75V1843.63C2107 1880.15 2094.36 1911.75 2069.07 1938.44C2043.79 1965.13 2012.89 1977.77 1976.37 1976.37H132.741C96.2196 1976.37 64.6145 1963.72 37.9259 1938.44C11.2372 1913.16 -1.40479 1881.55 -0.000118737 1843.63ZM396.116 1053.5C396.116 1143.4 412.972 1229.08 446.684 1310.55C480.396 1392.02 527.452 1461.56 587.853 1519.15C648.254 1576.74 718.487 1623.79 798.553 1660.32C878.619 1696.84 963.601 1714.4 1053.5 1712.99C1172.9 1712.99 1283.16 1683.49 1384.3 1624.5C1485.43 1565.5 1565.5 1485.44 1624.5 1384.3C1683.49 1283.16 1712.99 1172.9 1712.99 1053.5C1712.99 934.104 1683.49 824.54 1624.5 724.808C1565.5 625.077 1485.43 545.011 1384.3 484.61C1283.16 424.21 1172.9 394.712 1053.5 396.116C965.006 396.116 880.024 413.675 798.553 448.791C717.082 483.908 646.849 530.262 587.853 587.853C528.857 645.445 481.801 715.678 446.684 798.553C411.567 881.429 394.711 966.411 396.116 1053.5ZM659.491 1053.5C659.491 945.341 697.417 852.633 773.269 775.376C849.121 698.12 942.531 659.491 1053.5 659.491C1164.47 659.491 1257.88 698.12 1333.73 775.376C1409.58 852.633 1448.21 945.341 1449.62 1053.5C1451.02 1161.66 1412.39 1255.07 1333.73 1333.73C1255.07 1412.39 1161.66 1451.02 1053.5 1449.62C945.341 1448.21 851.93 1409.58 773.269 1333.73C694.608 1257.88 656.682 1164.47 659.491 1053.5Z" fill="#EFA7B5"/>
</g>
<defs>
<clipPath id="clip0_132_15">
<rect width="2107" height="2107" fill="white"/>
</clipPath>
</defs>
</svg>
