<svg width="150" height="150" viewBox="0 0 150 150" fill="none" xmlns="http://www.w3.org/2000/svg">
<path d="M83.0016 79.6875L59.5641 56.25H81.0609L104.498 79.6875H83.0016ZM18.75 70.3125C17.0953 70.3125 15.5344 69.975 14.0625 69.45V79.6875H48.2484L31.2094 62.6485C28.8703 67.1813 24.2016 70.3125 18.75 70.3125ZM129.652 41.0672C132.216 40.7297 134.025 38.3766 133.688 35.8125L133.078 31.1625C132.811 29.1188 132.075 27.2625 131.053 25.6125L119.841 42.361L129.652 41.0672ZM113.658 43.1719L127.837 21.9938C125.419 20.0766 122.395 18.9235 119.152 18.9235C118.542 18.9235 117.928 18.961 117.305 19.0453L109.805 20.0297L92.4375 45.9657L113.658 43.1719ZM132.623 79.6875L109.186 56.25H87.6891L111.127 79.6875H132.623ZM76.3734 79.6875L52.9359 56.25H49.8328H32.8125C32.8125 56.6766 32.7469 57.0797 32.6953 57.4875L54.8766 79.6875H76.3734ZM28.125 56.25C28.125 51.0703 23.9297 46.875 18.75 46.875C13.5703 46.875 9.375 51.0703 9.375 56.25C9.375 61.4297 13.5703 65.625 18.75 65.625C23.9297 65.625 28.125 61.4297 28.125 56.25ZM14.0625 84.375H135.938V121.875C135.938 129.642 129.642 135.938 121.875 135.938H28.125C20.3578 135.938 14.0625 129.642 14.0625 121.875V84.375ZM56.25 105.469C56.25 106.763 57.3 107.813 58.5938 107.813H91.4062C92.7 107.813 93.75 106.763 93.75 105.469C93.75 104.175 92.7 103.125 91.4062 103.125H58.5938C57.3 103.125 56.25 104.175 56.25 105.469ZM56.25 114.844C56.25 116.138 57.3 117.188 58.5938 117.188H91.4062C92.7 117.188 93.75 116.138 93.75 114.844C93.75 113.55 92.7 112.5 91.4062 112.5H58.5938C57.3 112.5 56.25 113.55 56.25 114.844ZM131.25 56.25H115.814L135.938 76.3735V60.9375C135.938 58.35 133.838 56.25 131.25 56.25ZM86.2547 46.7813L103.627 20.836L82.4156 23.6156L65.0344 49.575L86.2547 46.7813ZM58.8516 50.3907L76.2375 24.4266L55.0312 27.2016L37.6594 53.1797L58.8516 50.3907ZM32.3156 52.7344L48.8484 28.0125L24.3516 31.2235C17.7094 32.0953 12.7828 37.4766 12.1969 43.8797C14.1609 42.8344 16.3688 42.1875 18.75 42.1875C25.2937 42.1875 30.7453 46.6782 32.3156 52.7344Z" fill="#EFA7B5"/>
</svg>
