<svg width="2165" height="2165" viewBox="0 0 2165 2165" fill="none" xmlns="http://www.w3.org/2000/svg">
<path d="M1126.88 69.6182C1237.64 67.9268 1347.58 68.8063 1457.45 67.9268C1461.1 205.337 1516.85 329.012 1605.55 420.619L1605.42 420.484C1700.88 506.475 1825.09 562.223 1962.03 571.695L1963.93 571.831V912.547C1834.57 909.3 1712.92 879.464 1603.25 828.18L1608.8 830.48C1555.76 804.974 1510.9 778.791 1468.28 749.564L1471.79 751.864C1470.98 998.741 1472.61 1245.62 1470.1 1491.62C1463.13 1616.98 1421.46 1731.32 1354.61 1826.79L1355.97 1824.69C1244.2 1984.76 1063.15 2089.83 857.272 2096.06H856.325C848.003 2096.46 838.193 2096.67 828.315 2096.67C711.27 2096.67 601.87 2064.06 508.64 2007.43L511.346 2008.98C341.664 1906.89 224.619 1732.2 202.969 1529.03L202.698 1526.26C201.007 1483.97 200.195 1441.69 201.886 1400.28C235.038 1076.95 505.933 826.827 835.216 826.827C872.224 826.827 908.488 830.007 943.737 836.028L939.948 835.487C941.64 960.583 936.565 1085.75 936.565 1210.84C907.947 1200.49 874.931 1194.47 840.494 1194.47C714.112 1194.47 606.606 1275.25 566.824 1388.04L566.215 1390.07C557.217 1418.95 552.007 1452.17 552.007 1486.54C552.007 1500.48 552.887 1514.28 554.511 1527.81L554.375 1526.19C576.837 1664.61 695.506 1769.08 838.599 1769.08C842.726 1769.08 846.786 1769.01 850.845 1768.8H850.236C949.217 1765.83 1035.14 1712.58 1083.72 1633.9L1084.39 1632.68C1102.46 1607.51 1114.84 1577.07 1118.97 1543.98L1119.03 1543.04C1127.49 1391.69 1124.11 1241.22 1124.92 1089.87C1125.73 749.158 1124.11 409.253 1126.61 69.4152L1126.88 69.6182Z" fill="#EFA7B5"/>
</svg>
