<svg width="1339" height="1339" viewBox="0 0 1339 1339" fill="none" xmlns="http://www.w3.org/2000/svg">
<g clip-path="url(#clip0_121_163)">
<path d="M1149.79 654.946C1149.79 630.826 1130.24 611.282 1106.13 611.282C1082.01 611.282 1062.47 630.826 1062.47 654.946H1062.47C1062.43 871.469 886.308 1047.87 669.497 1047.91C452.987 1047.87 276.561 871.762 276.53 654.946C276.53 630.826 256.981 611.282 232.866 611.282C208.751 611.282 189.209 630.826 189.209 654.946C189.285 905.151 381.322 1110.81 625.833 1133.01V1251.67H494.844C470.732 1251.67 451.18 1271.22 451.18 1295.34C451.18 1319.45 470.729 1339 494.844 1339H844.148C868.26 1339 887.812 1319.45 887.812 1295.34C887.812 1271.22 868.263 1251.67 844.148 1251.67H713.159V1133.01C957.673 1110.81 1149.71 905.154 1149.79 654.946Z" fill="#EFA7B5"/>
<path d="M368.28 698.608C389.714 846.423 515.792 960.508 669.497 960.581C823.202 960.505 949.278 846.423 970.715 698.608C591.2 698.608 621.788 698.608 368.28 698.608Z" fill="#EFA7B5"/>
<path d="M835.416 436.632H966.405V349.306H835.416C811.303 349.306 791.752 329.758 791.752 305.642C791.752 281.522 811.3 261.978 835.416 261.978H961.98C940.548 114.158 814.47 0.0706113 660.765 0C507.06 0.0706113 380.979 114.158 359.548 261.978H486.112C510.224 261.978 529.776 281.522 529.776 305.642C529.776 329.755 510.227 349.306 486.112 349.306H355.123V436.632H486.112C510.224 436.632 529.776 456.175 529.776 480.296C529.776 504.408 510.227 523.96 486.112 523.96H355.123V611.285C558.088 611.285 689.875 611.285 966.405 611.285V523.96H835.416C811.303 523.96 791.752 504.411 791.752 480.296C791.754 456.175 811.303 436.632 835.416 436.632Z" fill="#EFA7B5"/>
</g>
<defs>
<clipPath id="clip0_121_163">
<rect width="1339" height="1339" fill="white"/>
</clipPath>
</defs>
</svg>
