<svg width="2165" height="2165" viewBox="0 0 2165 2165" fill="none" xmlns="http://www.w3.org/2000/svg">
<g clip-path="url(#clip0_125_9)">
<path fill-rule="evenodd" clip-rule="evenodd" d="M864.748 1362.45V754.968C1080.4 856.445 1247.43 954.473 1444.97 1060.16C1282.04 1150.52 1080.4 1251.9 864.748 1362.45ZM2066.6 452.84C2029.4 403.829 1966 365.678 1898.5 353.048C1700.09 315.371 462.334 315.264 264.038 353.048C209.908 363.195 161.708 387.723 120.302 425.831C-54.1642 587.762 0.505114 1456.15 42.5582 1596.81C60.2419 1657.7 83.1024 1701.61 111.893 1730.43C148.985 1768.54 199.772 1794.78 258.107 1806.55C421.466 1840.34 1263.07 1859.23 1895.05 1811.62C1953.27 1801.47 2004.81 1774.39 2045.47 1734.66C2206.78 1573.38 2195.78 656.226 2066.6 452.84Z" fill="#EFA7B5"/>
</g>
<defs>
<clipPath id="clip0_125_9">
<rect width="2165" height="2165" fill="white"/>
</clipPath>
</defs>
</svg>
