<svg width="562" height="800" viewBox="0 0 562 800" fill="none" xmlns="http://www.w3.org/2000/svg">
<path d="M361.775 258.066H334.881L399.388 24.6744L557.515 0L561.54 25.6147L419.888 47.7314L361.775 258.066ZM466.039 162.415H491.917V800H127.18V162.415H153.133V258.066H334.881L203.686 732.634L228.699 739.555L361.775 258.066H466.077V162.415H466.039ZM201.504 314.561C201.504 332.766 216.324 347.623 234.566 347.623C252.809 347.623 267.628 332.804 267.628 314.561C267.628 296.319 252.846 281.536 234.604 281.536C216.361 281.536 201.504 296.356 201.504 314.561ZM400.818 593.69C400.818 575.485 385.923 560.628 367.755 560.628C349.55 560.628 334.693 575.448 334.693 593.69C334.693 611.858 349.55 626.79 367.755 626.79C385.923 626.79 400.818 611.858 400.818 593.69ZM466.039 468.137C462.203 458.132 452.611 450.872 441.252 450.872C426.583 450.872 414.659 462.758 414.659 477.465C414.659 492.059 426.583 503.945 441.252 503.945C452.574 503.945 462.24 496.798 466.039 486.755V468.137ZM367.755 580.262C360.045 580.262 353.726 586.506 353.726 594.217C353.726 609.751 381.785 609.751 381.785 594.217C381.785 586.544 375.504 580.262 367.755 580.262ZM248.483 315.125C248.483 307.452 242.239 301.284 234.604 301.284C227.006 301.284 220.762 307.452 220.762 315.125C220.762 330.434 248.483 330.434 248.483 315.125ZM18.0633 101.067C30.8895 57.1348 71.8505 26.4799 117.626 26.4799C127.518 26.4799 137.336 27.9468 146.927 30.6549C173.557 38.5538 195.486 56.2321 208.801 80.6056C222.116 104.941 225.088 133.001 217.226 159.594L230.015 163.28C248.295 101.331 212.675 36.0713 150.688 17.904C88.739 -0.338521 23.442 35.2814 5.27476 97.3436C-13.043 159.293 22.577 224.627 84.5639 242.719L88.3252 230.006C33.4848 213.795 1.85194 155.983 18.0633 101.067ZM118.604 150.266C115.971 150.454 113.338 150.19 110.856 149.513C105.665 147.934 101.377 144.548 98.8194 139.771C96.224 134.995 95.5846 129.541 97.202 124.312C100.173 113.856 111.871 107.462 122.365 110.508C133.123 113.705 139.291 124.989 136.169 135.747C135.304 138.493 134.026 140.975 132.22 143.081L203.385 153.801C216.098 107.273 189.242 58.7522 142.752 45.0609C95.7351 31.2191 46.1606 58.2256 32.3564 105.318C18.7028 151.695 44.9193 200.517 90.8829 215.036L118.604 150.266ZM216.474 162.264L126.315 148.761L91.1462 230.796L88.4004 230.006L89.2656 226.847L124.284 145.188C120.522 147.106 116.122 147.67 111.796 146.391C102.769 143.796 97.6157 134.28 100.324 125.253C102.882 116.113 112.398 110.997 121.425 113.63C130.49 116.301 135.643 125.817 133.01 134.807C131.581 139.546 128.421 143.119 124.284 145.188L214.142 158.653L217.226 159.594L216.474 162.264ZM129.888 133.941C132.032 126.607 127.895 118.896 120.485 116.79C119.206 116.376 117.889 116.188 116.611 116.188C110.517 116.188 105.063 120.213 103.371 126.118C102.393 129.729 102.731 133.415 104.461 136.65C106.304 139.922 109.201 142.254 112.699 143.307C115.708 144.135 118.98 144.022 121.801 142.856L123.87 141.84C126.766 139.997 128.91 137.289 129.888 133.941Z" fill="#D8D8D8"/>
</svg>
