<!DOCTYPE svg PUBLIC "-//W3C//DTD SVG 1.1//EN" "http://www.w3.org/Graphics/SVG/1.1/DTD/svg11.dtd">

<!-- Uploaded to: SVG Repo, www.svgrepo.com, Transformed by: SVG Repo Mixer Tools -->
<svg height="800px" width="800px" version="1.1" id="Capa_1" xmlns="http://www.w3.org/2000/svg" xmlns:xlink="http://www.w3.org/1999/xlink" viewBox="0 0 21.269 21.269" xml:space="preserve" fill="#000000">

<g id="SVGRepo_bgCarrier" stroke-width="0"/>

<g id="SVGRepo_tracerCarrier" stroke-linecap="round" stroke-linejoin="round"/>

<g id="SVGRepo_iconCarrier"> <g> <path style="fill:#FFFFFF;" d="M12.782,6.861h-0.715l1.715-6.205L17.986,0l0.107,0.681l-3.766,0.588L12.782,6.861z M15.554,4.318 h0.688v16.951H6.545V4.318h0.69v2.543h4.832L8.579,19.478l0.665,0.184l3.538-12.801h2.773V4.318H15.554z M8.521,8.363 c0,0.484,0.394,0.879,0.879,0.879c0.485,0,0.879-0.394,0.879-0.879S9.886,7.485,9.401,7.485C8.916,7.485,8.521,7.879,8.521,8.363z M13.82,15.784c0-0.484-0.396-0.879-0.879-0.879c-0.484,0-0.879,0.394-0.879,0.879c0,0.483,0.395,0.88,0.879,0.88 C13.424,16.664,13.82,16.267,13.82,15.784z M15.554,12.446c-0.102-0.266-0.357-0.459-0.659-0.459c-0.39,0-0.707,0.316-0.707,0.707 c0,0.388,0.317,0.704,0.707,0.704c0.301,0,0.558-0.19,0.659-0.457V12.446z M12.941,15.427c-0.205,0-0.373,0.166-0.373,0.371 c0,0.413,0.746,0.413,0.746,0C13.314,15.594,13.147,15.427,12.941,15.427z M9.77,8.378c0-0.204-0.166-0.368-0.369-0.368 c-0.202,0-0.368,0.164-0.368,0.368C9.033,8.785,9.77,8.785,9.77,8.378z M3.644,2.687c0.341-1.168,1.43-1.983,2.647-1.983 c0.263,0,0.524,0.039,0.779,0.111c0.708,0.21,1.291,0.68,1.645,1.328c0.354,0.647,0.433,1.393,0.224,2.1l0.34,0.098 C9.765,2.694,8.818,0.959,7.17,0.476C5.523-0.009,3.787,0.938,3.304,2.588c-0.487,1.647,0.46,3.384,2.108,3.865l0.1-0.338 C4.054,5.684,3.213,4.147,3.644,2.687z M6.317,3.995C6.247,4,6.177,3.993,6.111,3.975c-0.138-0.042-0.252-0.132-0.32-0.259 C5.722,3.589,5.705,3.444,5.748,3.305c0.079-0.278,0.39-0.448,0.669-0.367c0.286,0.085,0.45,0.385,0.367,0.671 C6.761,3.682,6.727,3.748,6.679,3.804l1.892,0.285c0.338-1.237-0.376-2.527-1.612-2.891C5.709,0.83,4.391,1.548,4.024,2.8 C3.661,4.033,4.358,5.331,5.58,5.717L6.317,3.995z M8.919,4.314L6.522,3.955L5.587,6.136L5.514,6.115H5.513l0.024-0.084v0.001 L6.468,3.86c-0.1,0.051-0.217,0.066-0.332,0.032C5.896,3.823,5.759,3.57,5.831,3.33c0.068-0.243,0.321-0.379,0.561-0.309 C6.633,3.092,6.77,3.345,6.7,3.584C6.662,3.71,6.578,3.805,6.468,3.86h0.001l2.388,0.358l0.082,0.024L8.919,4.314z M6.617,3.561 c0.057-0.195-0.053-0.4-0.25-0.456C6.333,3.094,6.298,3.089,6.264,3.089c-0.162,0-0.307,0.107-0.352,0.264 c-0.026,0.096-0.017,0.194,0.029,0.28C5.99,3.72,6.067,3.782,6.16,3.81c0.08,0.022,0.167,0.019,0.242-0.012l0.055-0.027 C6.534,3.722,6.591,3.65,6.617,3.561z"/> </g> </g>

</svg>